<?xml version="1.0" encoding="UTF-8"?>
<!DOCTYPE svg PUBLIC "-//W3C//DTD SVG 1.1//EN" "http://www.w3.org/Graphics/SVG/1.1/DTD/svg11.dtd">
<!-- Creator: CorelDRAW -->
<svg xmlns="http://www.w3.org/2000/svg" xml:space="preserve" width="2333px" height="416px" version="1.1" style="shape-rendering:geometricPrecision; text-rendering:geometricPrecision; image-rendering:optimizeQuality; fill-rule:evenodd; clip-rule:evenodd"
viewBox="0 0 2331.32 415.67"
 xmlns:xlink="http://www.w3.org/1999/xlink"
 xmlns:xodm="http://www.corel.com/coreldraw/odm/2003">
 <defs>
  <style type="text/css">
   <![CDATA[
    .fil3 {fill:#184FEB}
    .fil2 {fill:#2C99EB}
    .fil1 {fill:#3DD9EB}
    .fil4 {fill:#3DD9EB}
    .fil0 {fill:#615DFF}
    .fil5 {fill:#11142D;fill-rule:nonzero}
   ]]>
  </style>
 </defs>
 <g id="Camada_x0020_1">
  <metadata id="CorelCorpID_0Corel-Layer"/>
  <g id="_1936772921680">
   <g>
    <path class="fil0" d="M0 52.82l0.02 275c0,28.22 25.12,51.43 57.09,52.74 56.23,2.32 109.91,12.84 154.92,30.26 19.07,7.38 39.35,5.9 56.79,-4.13 17.44,-10.03 27.14,-25.8 27.17,-44.16l0.36 -275.91c0,-14.07 -33.06,-33.32 -45.66,-40.06 -58.72,-31.41 -120.94,-43.08 -187.35,-46.46 -17.07,-0.87 -32.13,3.97 -44.56,14.32 -12.43,10.35 -18.78,23.32 -18.78,38.4z"/>
    <path class="fil1" d="M467.33 52.82l-0.02 275c-0.01,28.22 -25.13,51.43 -57.1,52.74 -56.22,2.32 -109.9,12.84 -154.91,30.26 -19.07,7.38 -39.36,5.9 -56.79,-4.13 -17.44,-10.03 -27.15,-25.8 -27.17,-44.16l-0.36 -275.91c0,-14.07 33.06,-33.32 45.66,-40.06 58.71,-31.41 120.94,-43.08 187.35,-46.46 17.07,-0.87 32.13,3.97 44.56,14.32 12.43,10.35 18.78,23.32 18.78,38.4z"/>
    <path class="fil2" d="M413.34 169.96c40.97,20.74 68.11,56.95 68.11,98.15 0,64.4 -66.29,116.6 -148.07,116.6 -81.77,0 -148.06,-52.2 -148.06,-116.6 0,-28.8 13.27,-55.16 35.24,-75.5 -21.78,-17.23 -35.24,-40.99 -35.24,-67.23 0,-52.63 54.19,-95.31 121.03,-95.31 66.84,0 121.02,42.68 121.02,95.31 0,16.11 -5.08,31.28 -14.03,44.58z"/>
    <path class="fil3" d="M296.33 362.53l0.36 -275.91c0,-14.07 -33.24,-33.32 -45.91,-40.06 -5.67,-3.02 -11.38,-5.86 -17.12,-8.52 -5.74,2.66 -11.44,5.5 -17.12,8.52 -12.67,6.74 -45.9,25.99 -45.9,40.06l0.36 275.91c0.02,17.28 8.67,32.27 24.31,42.33 0.97,0.63 1.97,1.24 3,1.83 20.92,11.97 49.78,11.97 70.71,0 1.02,-0.59 2.03,-1.2 3,-1.83 15.64,-10.06 24.29,-25.05 24.31,-42.33z"/>
    <path class="fil4" d="M481.45 268.11c0,-17.81 -5.07,-34.68 -14.14,-49.78l0 99.57c9.07,-15.1 14.14,-31.98 14.14,-49.79z"/>
   </g>
   <path class="fil5" d="M759.17 203.17c13.19,2.46 24.03,9.05 32.52,19.78 8.49,10.72 12.74,23.01 12.74,36.87 0,12.51 -3.08,23.52 -9.22,33.02 -6.15,9.5 -15.03,16.93 -26.65,22.29 -11.62,5.36 -25.37,8.05 -41.23,8.05l-100.9 0 0 -233.98 96.54 0c15.87,0 29.55,2.57 41.06,7.71 11.51,5.14 20.23,12.29 26.15,21.45 5.92,9.16 8.88,19.55 8.88,31.17 0,13.64 -3.63,25.03 -10.89,34.2 -7.27,9.16 -16.93,15.64 -29,19.44zm-85.81 -17.43l42.91 0c11.17,0 19.77,-2.52 25.81,-7.54 6.03,-5.03 9.05,-12.24 9.05,-21.63 0,-9.38 -3.02,-16.64 -9.05,-21.78 -6.04,-5.14 -14.64,-7.71 -25.81,-7.71l-42.91 0 0 58.66zm47.26 99.22c11.4,0 20.28,-2.68 26.65,-8.04 6.37,-5.37 9.56,-12.97 9.56,-22.8 0,-10.05 -3.36,-17.93 -10.06,-23.63 -6.7,-5.7 -15.76,-8.55 -27.15,-8.55l-46.26 0 0 63.02 47.26 0zm229.96 40.56c-21.9,0 -42.01,-5.14 -60.34,-15.42 -18.32,-10.28 -32.85,-24.53 -43.58,-42.74 -10.72,-18.21 -16.09,-38.83 -16.09,-61.85 0,-22.79 5.37,-43.29 16.09,-61.51 10.73,-18.21 25.26,-32.46 43.58,-42.74 18.33,-10.28 38.44,-15.42 60.34,-15.42 22.12,0 42.29,5.14 60.5,15.42 18.22,10.28 32.63,24.53 43.25,42.74 10.61,18.22 15.92,38.72 15.92,61.51 0,23.02 -5.31,43.64 -15.92,61.85 -10.62,18.21 -25.09,32.46 -43.41,42.74 -18.33,10.28 -38.44,15.42 -60.34,15.42zm0 -41.9c14.08,0 26.48,-3.18 37.21,-9.55 10.72,-6.37 19.1,-15.48 25.14,-27.32 6.03,-11.85 9.05,-25.59 9.05,-41.24 0,-15.64 -3.02,-29.33 -9.05,-41.06 -6.04,-11.73 -14.42,-20.73 -25.14,-26.98 -10.73,-6.26 -23.13,-9.39 -37.21,-9.39 -14.08,0 -26.54,3.13 -37.38,9.39 -10.84,6.25 -19.27,15.25 -25.31,26.98 -6.03,11.73 -9.05,25.42 -9.05,41.06 0,15.65 3.02,29.39 9.05,41.24 6.04,11.84 14.47,20.95 25.31,27.32 10.84,6.37 23.3,9.55 37.38,9.55zm263.14 41.9c-21.9,0 -42.01,-5.14 -60.34,-15.42 -18.32,-10.28 -32.85,-24.53 -43.57,-42.74 -10.73,-18.21 -16.09,-38.83 -16.09,-61.85 0,-22.79 5.36,-43.29 16.09,-61.51 10.72,-18.21 25.25,-32.46 43.57,-42.74 18.33,-10.28 38.44,-15.42 60.34,-15.42 22.13,0 42.29,5.14 60.51,15.42 18.21,10.28 32.62,24.53 43.24,42.74 10.61,18.22 15.92,38.72 15.92,61.51 0,23.02 -5.31,43.64 -15.92,61.85 -10.62,18.21 -25.09,32.46 -43.41,42.74 -18.32,10.28 -38.44,15.42 -60.34,15.42zm0 -41.9c14.08,0 26.48,-3.18 37.21,-9.55 10.73,-6.37 19.11,-15.48 25.14,-27.32 6.03,-11.85 9.05,-25.59 9.05,-41.24 0,-15.64 -3.02,-29.33 -9.05,-41.06 -6.03,-11.73 -14.41,-20.73 -25.14,-26.98 -10.73,-6.26 -23.13,-9.39 -37.21,-9.39 -14.08,0 -26.54,3.13 -37.37,9.39 -10.84,6.25 -19.28,15.25 -25.31,26.98 -6.04,11.73 -9.05,25.42 -9.05,41.06 0,15.65 3.01,29.39 9.05,41.24 6.03,11.84 14.47,20.95 25.31,27.32 10.83,6.37 23.29,9.55 37.37,9.55zm286.61 39.56l-85.14 -104.26 0 104.26 -46.93 0 0 -233.98 46.93 0 0 104.92 85.14 -104.92 56.65 0 -96.54 115.98 99.22 118 -59.33 0zm123.36 -248.06l0 248.06 -30.51 0 0 -248.06 30.51 0zm67.71 34.52c-5.81,0 -10.73,-2.01 -14.75,-6.03 -4.02,-4.02 -6.03,-8.94 -6.03,-14.75 0,-5.81 2.01,-10.73 6.03,-14.75 4.02,-4.02 8.94,-6.03 14.75,-6.03 5.59,0 10.34,2.01 14.25,6.03 3.91,4.02 5.86,8.94 5.86,14.75 0,5.81 -1.95,10.73 -5.86,14.75 -3.91,4.02 -8.66,6.03 -14.25,6.03zm14.75 29.84l0 183.7 -30.5 0 0 -183.7 30.5 0zm141.46 -3.35c22.35,0 40.45,6.76 54.3,20.28 13.86,13.52 20.79,33.02 20.79,58.49l0 108.28 -30.17 0 0 -103.92c0,-18.33 -4.58,-32.35 -13.75,-42.07 -9.16,-9.72 -21.67,-14.58 -37.54,-14.58 -16.09,0 -28.88,5.03 -38.38,15.08 -9.5,10.06 -14.25,24.7 -14.25,43.92l0 101.57 -30.5 0 0 -183.7 30.5 0 0 26.15c6.04,-9.39 14.25,-16.65 24.64,-21.79 10.39,-5.14 21.85,-7.71 34.36,-7.71zm200.79 0.33c15.87,0 29.78,3.47 41.74,10.39 11.95,6.93 20.84,15.65 26.65,26.15l0 -33.52 30.84 0 0 187.72c0,16.76 -3.58,31.68 -10.73,44.75 -7.15,13.07 -17.38,23.3 -30.67,30.67 -13.3,7.38 -28.78,11.06 -46.43,11.06 -24.13,0 -44.25,-5.7 -60.34,-17.09 -16.09,-11.4 -25.59,-26.93 -28.49,-46.6l30.17 0c3.35,11.18 10.28,20.17 20.78,26.99 10.5,6.81 23.13,10.22 37.88,10.22 16.76,0 30.45,-5.25 41.06,-15.75 10.62,-10.51 15.93,-25.26 15.93,-44.25l0 -38.55c-6.04,10.72 -14.98,19.66 -26.82,26.82 -11.84,7.15 -25.7,10.72 -41.57,10.72 -16.31,0 -31.12,-4.02 -44.41,-12.07 -13.3,-8.04 -23.75,-19.33 -31.35,-33.85 -7.59,-14.53 -11.39,-31.07 -11.39,-49.61 0,-18.78 3.8,-35.26 11.39,-49.45 7.6,-14.19 18.05,-25.19 31.35,-33.02 13.29,-7.82 28.1,-11.73 44.41,-11.73zm68.39 94.53c0,-13.85 -2.8,-25.92 -8.38,-36.2 -5.59,-10.28 -13.13,-18.16 -22.63,-23.63 -9.5,-5.48 -19.95,-8.22 -31.34,-8.22 -11.4,0 -21.79,2.69 -31.18,8.05 -9.38,5.36 -16.87,13.18 -22.46,23.46 -5.58,10.28 -8.38,22.35 -8.38,36.21 0,14.08 2.8,26.31 8.38,36.7 5.59,10.39 13.08,18.33 22.46,23.8 9.39,5.48 19.78,8.21 31.18,8.21 11.39,0 21.84,-2.73 31.34,-8.21 9.5,-5.47 17.04,-13.41 22.63,-23.8 5.58,-10.39 8.38,-22.51 8.38,-36.37zm147.49 95.2c-14.08,0 -26.7,-2.4 -37.88,-7.21 -11.17,-4.8 -20,-11.5 -26.48,-20.11 -6.48,-8.6 -10.06,-18.49 -10.73,-29.66l31.51 0c0.9,9.16 5.2,16.64 12.91,22.46 7.71,5.81 17.82,8.71 30.34,8.71 11.62,0 20.78,-2.57 27.48,-7.71 6.71,-5.14 10.06,-11.62 10.06,-19.44 0,-8.05 -3.58,-14.02 -10.73,-17.94 -7.15,-3.91 -18.21,-7.76 -33.18,-11.56 -13.64,-3.58 -24.75,-7.21 -33.36,-10.89 -8.6,-3.69 -15.98,-9.17 -22.12,-16.43 -6.15,-7.26 -9.22,-16.82 -9.22,-28.66 0,-9.39 2.79,-17.99 8.38,-25.81 5.59,-7.82 13.52,-14.03 23.8,-18.61 10.28,-4.58 22.01,-6.87 35.2,-6.87 20.33,0 36.76,5.14 49.27,15.42 12.52,10.28 19.22,24.36 20.12,42.24l-30.51 0c-0.67,-9.61 -4.52,-17.32 -11.56,-23.13 -7.04,-5.81 -16.48,-8.72 -28.33,-8.72 -10.95,0 -19.66,2.35 -26.14,7.04 -6.49,4.7 -9.73,10.84 -9.73,18.44 0,6.03 1.96,11.01 5.87,14.92 3.91,3.91 8.83,7.04 14.75,9.38 5.92,2.35 14.13,4.97 24.64,7.88 13.18,3.58 23.91,7.09 32.18,10.56 8.27,3.46 15.36,8.66 21.29,15.59 5.92,6.92 8.99,15.97 9.21,27.15 0,10.05 -2.79,19.11 -8.38,27.15 -5.58,8.05 -13.46,14.36 -23.63,18.94 -10.17,4.58 -21.84,6.87 -35.03,6.87z"/>
  </g>
 </g>
</svg>
